# xmcd
#
# Track frame offsets: 
#        150
#        19064
#        46444
#        76711
#        110514
#        138878
#        167458
#        199340
#
# Disc length: 3196 seconds
#
# Revision: 3
# Processed by: cddbd v1.5.2PL0 Copyright (c) Steve Scherf et al.
# Submitted via: ExactAudioCopyFreeDBPlugin 1.0
#
DISCID=5d0c7a08
DTITLE=Zhu ZheQing - Yellow Children
DYEAR=1992
DGENRE=New Age
TTITLE0=The Sea is Gone
TTITLE1=Yellow Children
TTITLE2=The Xiao Player
TTITLE3=The Unknown Father
TTITLE4=The Fate
TTITLE5=The Dry Season
TTITLE6=This is You
TTITLE7=The Child Going Far Away
EXTD=YEAR: 1992
EXTT0=
EXTT1=
EXTT2=
EXTT3=
EXTT4=
EXTT5=
EXTT6=
EXTT7=
PLAYORDER=
